<?xml version="1.0" encoding="utf-8" standalone="no"?>
<!DOCTYPE svg PUBLIC "-//W3C//DTD SVG 1.1//EN"
  "http://www.w3.org/Graphics/SVG/1.1/DTD/svg11.dtd">
<svg xmlns:xlink="http://www.w3.org/1999/xlink" width="720pt" height="576pt" viewBox="0 0 720 576" xmlns="http://www.w3.org/2000/svg" version="1.1">
 <metadata>
  <rdf:RDF xmlns:dc="http://purl.org/dc/elements/1.1/" xmlns:cc="http://creativecommons.org/ns#" xmlns:rdf="http://www.w3.org/1999/02/22-rdf-syntax-ns#">
   <cc:Work>
    <dc:type rdf:resource="http://purl.org/dc/dcmitype/StillImage"/>
    <dc:date>2025-12-21T01:31:34.572059</dc:date>
    <dc:format>image/svg+xml</dc:format>
    <dc:creator>
     <cc:Agent>
      <dc:title>Matplotlib v3.10.7, https://matplotlib.org/</dc:title>
     </cc:Agent>
    </dc:creator>
   </cc:Work>
  </rdf:RDF>
 </metadata>
 <defs>
  <style type="text/css">*{stroke-linejoin: round; stroke-linecap: butt}</style>
 </defs>
 <g id="figure_1">
  <g id="patch_1">
   <path d="M 0 576 
L 720 576 
L 720 0 
L 0 0 
z
" style="fill: #ffffff"/>
  </g>
  <g id="axes_1">
   <g id="patch_2">
    <path d="M 90 512.64 
L 648 512.64 
L 648 69.12 
L 90 69.12 
z
" style="fill: #ffffff"/>
   </g>
   <g id="matplotlib.axis_1">
    <g id="xtick_1">
     <g id="line2d_1">
      <defs>
       <path id="m3980cc0c89" d="M 0 0 
L 0 3.5 
" style="stroke: #000000; stroke-width: 0.8"/>
      </defs>
      <g>
       <use xlink:href="#m3980cc0c89" x="115.363636" y="512.64" style="stroke: #000000; stroke-width: 0.8"/>
      </g>
     </g>
     <g id="text_1">
      <!-- 0.0 -->
      <g transform="translate(107.412074 527.238438) scale(0.1 -0.1)">
       <defs>
        <path id="DejaVuSans-30" d="M 2034 4250 
Q 1547 4250 1301 3770 
Q 1056 3291 1056 2328 
Q 1056 1369 1301 889 
Q 1547 409 2034 409 
Q 2525 409 2770 889 
Q 3016 1369 3016 2328 
Q 3016 3291 2770 3770 
Q 2525 4250 2034 4250 
z
M 2034 4750 
Q 2819 4750 3233 4129 
Q 3647 3509 3647 2328 
Q 3647 1150 3233 529 
Q 2819 -91 2034 -91 
Q 1250 -91 836 529 
Q 422 1150 422 2328 
Q 422 3509 836 4129 
Q 1250 4750 2034 4750 
z
" transform="scale(0.015625)"/>
        <path id="DejaVuSans-2e" d="M 684 794 
L 1344 794 
L 1344 0 
L 684 0 
L 684 794 
z
" transform="scale(0.015625)"/>
       </defs>
       <use xlink:href="#DejaVuSans-30"/>
       <use xlink:href="#DejaVuSans-2e" transform="translate(63.623047 0)"/>
       <use xlink:href="#DejaVuSans-30" transform="translate(95.410156 0)"/>
      </g>
     </g>
    </g>
    <g id="xtick_2">
     <g id="line2d_2">
      <g>
       <use xlink:href="#m3980cc0c89" x="219.16573" y="512.64" style="stroke: #000000; stroke-width: 0.8"/>
      </g>
     </g>
     <g id="text_2">
      <!-- 0.5 -->
      <g transform="translate(211.214168 527.238438) scale(0.1 -0.1)">
       <defs>
        <path id="DejaVuSans-35" d="M 691 4666 
L 3169 4666 
L 3169 4134 
L 1269 4134 
L 1269 2991 
Q 1406 3038 1543 3061 
Q 1681 3084 1819 3084 
Q 2600 3084 3056 2656 
Q 3513 2228 3513 1497 
Q 3513 744 3044 326 
Q 2575 -91 1722 -91 
Q 1428 -91 1123 -41 
Q 819 9 494 109 
L 494 744 
Q 775 591 1075 516 
Q 1375 441 1709 441 
Q 2250 441 2565 725 
Q 2881 1009 2881 1497 
Q 2881 1984 2565 2268 
Q 2250 2553 1709 2553 
Q 1456 2553 1204 2497 
Q 953 2441 691 2322 
L 691 4666 
z
" transform="scale(0.015625)"/>
       </defs>
       <use xlink:href="#DejaVuSans-30"/>
       <use xlink:href="#DejaVuSans-2e" transform="translate(63.623047 0)"/>
       <use xlink:href="#DejaVuSans-35" transform="translate(95.410156 0)"/>
      </g>
     </g>
    </g>
    <g id="xtick_3">
     <g id="line2d_3">
      <g>
       <use xlink:href="#m3980cc0c89" x="322.967824" y="512.64" style="stroke: #000000; stroke-width: 0.8"/>
      </g>
     </g>
     <g id="text_3">
      <!-- 1.0 -->
      <g transform="translate(315.016262 527.238438) scale(0.1 -0.1)">
       <defs>
        <path id="DejaVuSans-31" d="M 794 531 
L 1825 531 
L 1825 4091 
L 703 3866 
L 703 4441 
L 1819 4666 
L 2450 4666 
L 2450 531 
L 3481 531 
L 3481 0 
L 794 0 
L 794 531 
z
" transform="scale(0.015625)"/>
       </defs>
       <use xlink:href="#DejaVuSans-31"/>
       <use xlink:href="#DejaVuSans-2e" transform="translate(63.623047 0)"/>
       <use xlink:href="#DejaVuSans-30" transform="translate(95.410156 0)"/>
      </g>
     </g>
    </g>
    <g id="xtick_4">
     <g id="line2d_4">
      <g>
       <use xlink:href="#m3980cc0c89" x="426.769919" y="512.64" style="stroke: #000000; stroke-width: 0.8"/>
      </g>
     </g>
     <g id="text_4">
      <!-- 1.5 -->
      <g transform="translate(418.818356 527.238438) scale(0.1 -0.1)">
       <use xlink:href="#DejaVuSans-31"/>
       <use xlink:href="#DejaVuSans-2e" transform="translate(63.623047 0)"/>
       <use xlink:href="#DejaVuSans-35" transform="translate(95.410156 0)"/>
      </g>
     </g>
    </g>
    <g id="xtick_5">
     <g id="line2d_5">
      <g>
       <use xlink:href="#m3980cc0c89" x="530.572013" y="512.64" style="stroke: #000000; stroke-width: 0.8"/>
      </g>
     </g>
     <g id="text_5">
      <!-- 2.0 -->
      <g transform="translate(522.62045 527.238438) scale(0.1 -0.1)">
       <defs>
        <path id="DejaVuSans-32" d="M 1228 531 
L 3431 531 
L 3431 0 
L 469 0 
L 469 531 
Q 828 903 1448 1529 
Q 2069 2156 2228 2338 
Q 2531 2678 2651 2914 
Q 2772 3150 2772 3378 
Q 2772 3750 2511 3984 
Q 2250 4219 1831 4219 
Q 1534 4219 1204 4116 
Q 875 4013 500 3803 
L 500 4441 
Q 881 4594 1212 4672 
Q 1544 4750 1819 4750 
Q 2544 4750 2975 4387 
Q 3406 4025 3406 3419 
Q 3406 3131 3298 2873 
Q 3191 2616 2906 2266 
Q 2828 2175 2409 1742 
Q 1991 1309 1228 531 
z
" transform="scale(0.015625)"/>
       </defs>
       <use xlink:href="#DejaVuSans-32"/>
       <use xlink:href="#DejaVuSans-2e" transform="translate(63.623047 0)"/>
       <use xlink:href="#DejaVuSans-30" transform="translate(95.410156 0)"/>
      </g>
     </g>
    </g>
    <g id="xtick_6">
     <g id="line2d_6">
      <g>
       <use xlink:href="#m3980cc0c89" x="634.374107" y="512.64" style="stroke: #000000; stroke-width: 0.8"/>
      </g>
     </g>
     <g id="text_6">
      <!-- 2.5 -->
      <g transform="translate(626.422544 527.238438) scale(0.1 -0.1)">
       <use xlink:href="#DejaVuSans-32"/>
       <use xlink:href="#DejaVuSans-2e" transform="translate(63.623047 0)"/>
       <use xlink:href="#DejaVuSans-35" transform="translate(95.410156 0)"/>
      </g>
     </g>
    </g>
    <g id="text_7">
     <!-- Independent joint value (knee_angle_l) -->
     <g transform="translate(271.534375 540.916563) scale(0.1 -0.1)">
      <defs>
       <path id="DejaVuSans-49" d="M 628 4666 
L 1259 4666 
L 1259 0 
L 628 0 
L 628 4666 
z
" transform="scale(0.015625)"/>
       <path id="DejaVuSans-6e" d="M 3513 2113 
L 3513 0 
L 2938 0 
L 2938 2094 
Q 2938 2591 2744 2837 
Q 2550 3084 2163 3084 
Q 1697 3084 1428 2787 
Q 1159 2491 1159 1978 
L 1159 0 
L 581 0 
L 581 3500 
L 1159 3500 
L 1159 2956 
Q 1366 3272 1645 3428 
Q 1925 3584 2291 3584 
Q 2894 3584 3203 3211 
Q 3513 2838 3513 2113 
z
" transform="scale(0.015625)"/>
       <path id="DejaVuSans-64" d="M 2906 2969 
L 2906 4863 
L 3481 4863 
L 3481 0 
L 2906 0 
L 2906 525 
Q 2725 213 2448 61 
Q 2172 -91 1784 -91 
Q 1150 -91 751 415 
Q 353 922 353 1747 
Q 353 2572 751 3078 
Q 1150 3584 1784 3584 
Q 2172 3584 2448 3432 
Q 2725 3281 2906 2969 
z
M 947 1747 
Q 947 1113 1208 752 
Q 1469 391 1925 391 
Q 2381 391 2643 752 
Q 2906 1113 2906 1747 
Q 2906 2381 2643 2742 
Q 2381 3103 1925 3103 
Q 1469 3103 1208 2742 
Q 947 2381 947 1747 
z
" transform="scale(0.015625)"/>
       <path id="DejaVuSans-65" d="M 3597 1894 
L 3597 1613 
L 953 1613 
Q 991 1019 1311 708 
Q 1631 397 2203 397 
Q 2534 397 2845 478 
Q 3156 559 3463 722 
L 3463 178 
Q 3153 47 2828 -22 
Q 2503 -91 2169 -91 
Q 1331 -91 842 396 
Q 353 884 353 1716 
Q 353 2575 817 3079 
Q 1281 3584 2069 3584 
Q 2775 3584 3186 3129 
Q 3597 2675 3597 1894 
z
M 3022 2063 
Q 3016 2534 2758 2815 
Q 2500 3097 2075 3097 
Q 1594 3097 1305 2825 
Q 1016 2553 972 2059 
L 3022 2063 
z
" transform="scale(0.015625)"/>
       <path id="DejaVuSans-70" d="M 1159 525 
L 1159 -1331 
L 581 -1331 
L 581 3500 
L 1159 3500 
L 1159 2969 
Q 1341 3281 1617 3432 
Q 1894 3584 2278 3584 
Q 2916 3584 3314 3078 
Q 3713 2572 3713 1747 
Q 3713 922 3314 415 
Q 2916 -91 2278 -91 
Q 1894 -91 1617 61 
Q 1341 213 1159 525 
z
M 3116 1747 
Q 3116 2381 2855 2742 
Q 2594 3103 2138 3103 
Q 1681 3103 1420 2742 
Q 1159 2381 1159 1747 
Q 1159 1113 1420 752 
Q 1681 391 2138 391 
Q 2594 391 2855 752 
Q 3116 1113 3116 1747 
z
" transform="scale(0.015625)"/>
       <path id="DejaVuSans-74" d="M 1172 4494 
L 1172 3500 
L 2356 3500 
L 2356 3053 
L 1172 3053 
L 1172 1153 
Q 1172 725 1289 603 
Q 1406 481 1766 481 
L 2356 481 
L 2356 0 
L 1766 0 
Q 1100 0 847 248 
Q 594 497 594 1153 
L 594 3053 
L 172 3053 
L 172 3500 
L 594 3500 
L 594 4494 
L 1172 4494 
z
" transform="scale(0.015625)"/>
       <path id="DejaVuSans-20" transform="scale(0.015625)"/>
       <path id="DejaVuSans-6a" d="M 603 3500 
L 1178 3500 
L 1178 -63 
Q 1178 -731 923 -1031 
Q 669 -1331 103 -1331 
L -116 -1331 
L -116 -844 
L 38 -844 
Q 366 -844 484 -692 
Q 603 -541 603 -63 
L 603 3500 
z
M 603 4863 
L 1178 4863 
L 1178 4134 
L 603 4134 
L 603 4863 
z
" transform="scale(0.015625)"/>
       <path id="DejaVuSans-6f" d="M 1959 3097 
Q 1497 3097 1228 2736 
Q 959 2375 959 1747 
Q 959 1119 1226 758 
Q 1494 397 1959 397 
Q 2419 397 2687 759 
Q 2956 1122 2956 1747 
Q 2956 2369 2687 2733 
Q 2419 3097 1959 3097 
z
M 1959 3584 
Q 2709 3584 3137 3096 
Q 3566 2609 3566 1747 
Q 3566 888 3137 398 
Q 2709 -91 1959 -91 
Q 1206 -91 779 398 
Q 353 888 353 1747 
Q 353 2609 779 3096 
Q 1206 3584 1959 3584 
z
" transform="scale(0.015625)"/>
       <path id="DejaVuSans-69" d="M 603 3500 
L 1178 3500 
L 1178 0 
L 603 0 
L 603 3500 
z
M 603 4863 
L 1178 4863 
L 1178 4134 
L 603 4134 
L 603 4863 
z
" transform="scale(0.015625)"/>
       <path id="DejaVuSans-76" d="M 191 3500 
L 800 3500 
L 1894 563 
L 2988 3500 
L 3597 3500 
L 2284 0 
L 1503 0 
L 191 3500 
z
" transform="scale(0.015625)"/>
       <path id="DejaVuSans-61" d="M 2194 1759 
Q 1497 1759 1228 1600 
Q 959 1441 959 1056 
Q 959 750 1161 570 
Q 1363 391 1709 391 
Q 2188 391 2477 730 
Q 2766 1069 2766 1631 
L 2766 1759 
L 2194 1759 
z
M 3341 1997 
L 3341 0 
L 2766 0 
L 2766 531 
Q 2569 213 2275 61 
Q 1981 -91 1556 -91 
Q 1019 -91 701 211 
Q 384 513 384 1019 
Q 384 1609 779 1909 
Q 1175 2209 1959 2209 
L 2766 2209 
L 2766 2266 
Q 2766 2663 2505 2880 
Q 2244 3097 1772 3097 
Q 1472 3097 1187 3025 
Q 903 2953 641 2809 
L 641 3341 
Q 956 3463 1253 3523 
Q 1550 3584 1831 3584 
Q 2591 3584 2966 3190 
Q 3341 2797 3341 1997 
z
" transform="scale(0.015625)"/>
       <path id="DejaVuSans-6c" d="M 603 4863 
L 1178 4863 
L 1178 0 
L 603 0 
L 603 4863 
z
" transform="scale(0.015625)"/>
       <path id="DejaVuSans-75" d="M 544 1381 
L 544 3500 
L 1119 3500 
L 1119 1403 
Q 1119 906 1312 657 
Q 1506 409 1894 409 
Q 2359 409 2629 706 
Q 2900 1003 2900 1516 
L 2900 3500 
L 3475 3500 
L 3475 0 
L 2900 0 
L 2900 538 
Q 2691 219 2414 64 
Q 2138 -91 1772 -91 
Q 1169 -91 856 284 
Q 544 659 544 1381 
z
M 1991 3584 
L 1991 3584 
z
" transform="scale(0.015625)"/>
       <path id="DejaVuSans-28" d="M 1984 4856 
Q 1566 4138 1362 3434 
Q 1159 2731 1159 2009 
Q 1159 1288 1364 580 
Q 1569 -128 1984 -844 
L 1484 -844 
Q 1016 -109 783 600 
Q 550 1309 550 2009 
Q 550 2706 781 3412 
Q 1013 4119 1484 4856 
L 1984 4856 
z
" transform="scale(0.015625)"/>
       <path id="DejaVuSans-6b" d="M 581 4863 
L 1159 4863 
L 1159 1991 
L 2875 3500 
L 3609 3500 
L 1753 1863 
L 3688 0 
L 2938 0 
L 1159 1709 
L 1159 0 
L 581 0 
L 581 4863 
z
" transform="scale(0.015625)"/>
       <path id="DejaVuSans-5f" d="M 3263 -1063 
L 3263 -1509 
L -63 -1509 
L -63 -1063 
L 3263 -1063 
z
" transform="scale(0.015625)"/>
       <path id="DejaVuSans-67" d="M 2906 1791 
Q 2906 2416 2648 2759 
Q 2391 3103 1925 3103 
Q 1463 3103 1205 2759 
Q 947 2416 947 1791 
Q 947 1169 1205 825 
Q 1463 481 1925 481 
Q 2391 481 2648 825 
Q 2906 1169 2906 1791 
z
M 3481 434 
Q 3481 -459 3084 -895 
Q 2688 -1331 1869 -1331 
Q 1566 -1331 1297 -1286 
Q 1028 -1241 775 -1147 
L 775 -588 
Q 1028 -725 1275 -790 
Q 1522 -856 1778 -856 
Q 2344 -856 2625 -561 
Q 2906 -266 2906 331 
L 2906 616 
Q 2728 306 2450 153 
Q 2172 0 1784 0 
Q 1141 0 747 490 
Q 353 981 353 1791 
Q 353 2603 747 3093 
Q 1141 3584 1784 3584 
Q 2172 3584 2450 3431 
Q 2728 3278 2906 2969 
L 2906 3500 
L 3481 3500 
L 3481 434 
z
" transform="scale(0.015625)"/>
       <path id="DejaVuSans-29" d="M 513 4856 
L 1013 4856 
Q 1481 4119 1714 3412 
Q 1947 2706 1947 2009 
Q 1947 1309 1714 600 
Q 1481 -109 1013 -844 
L 513 -844 
Q 928 -128 1133 580 
Q 1338 1288 1338 2009 
Q 1338 2731 1133 3434 
Q 928 4138 513 4856 
z
" transform="scale(0.015625)"/>
      </defs>
      <use xlink:href="#DejaVuSans-49"/>
      <use xlink:href="#DejaVuSans-6e" transform="translate(29.492188 0)"/>
      <use xlink:href="#DejaVuSans-64" transform="translate(92.871094 0)"/>
      <use xlink:href="#DejaVuSans-65" transform="translate(156.347656 0)"/>
      <use xlink:href="#DejaVuSans-70" transform="translate(217.871094 0)"/>
      <use xlink:href="#DejaVuSans-65" transform="translate(281.347656 0)"/>
      <use xlink:href="#DejaVuSans-6e" transform="translate(342.871094 0)"/>
      <use xlink:href="#DejaVuSans-64" transform="translate(406.25 0)"/>
      <use xlink:href="#DejaVuSans-65" transform="translate(469.726562 0)"/>
      <use xlink:href="#DejaVuSans-6e" transform="translate(531.25 0)"/>
      <use xlink:href="#DejaVuSans-74" transform="translate(594.628906 0)"/>
      <use xlink:href="#DejaVuSans-20" transform="translate(633.837891 0)"/>
      <use xlink:href="#DejaVuSans-6a" transform="translate(665.625 0)"/>
      <use xlink:href="#DejaVuSans-6f" transform="translate(693.408203 0)"/>
      <use xlink:href="#DejaVuSans-69" transform="translate(754.589844 0)"/>
      <use xlink:href="#DejaVuSans-6e" transform="translate(782.373047 0)"/>
      <use xlink:href="#DejaVuSans-74" transform="translate(845.751953 0)"/>
      <use xlink:href="#DejaVuSans-20" transform="translate(884.960938 0)"/>
      <use xlink:href="#DejaVuSans-76" transform="translate(916.748047 0)"/>
      <use xlink:href="#DejaVuSans-61" transform="translate(975.927734 0)"/>
      <use xlink:href="#DejaVuSans-6c" transform="translate(1037.207031 0)"/>
      <use xlink:href="#DejaVuSans-75" transform="translate(1064.990234 0)"/>
      <use xlink:href="#DejaVuSans-65" transform="translate(1128.369141 0)"/>
      <use xlink:href="#DejaVuSans-20" transform="translate(1189.892578 0)"/>
      <use xlink:href="#DejaVuSans-28" transform="translate(1221.679688 0)"/>
      <use xlink:href="#DejaVuSans-6b" transform="translate(1260.693359 0)"/>
      <use xlink:href="#DejaVuSans-6e" transform="translate(1318.603516 0)"/>
      <use xlink:href="#DejaVuSans-65" transform="translate(1381.982422 0)"/>
      <use xlink:href="#DejaVuSans-65" transform="translate(1443.505859 0)"/>
      <use xlink:href="#DejaVuSans-5f" transform="translate(1505.029297 0)"/>
      <use xlink:href="#DejaVuSans-61" transform="translate(1555.029297 0)"/>
      <use xlink:href="#DejaVuSans-6e" transform="translate(1616.308594 0)"/>
      <use xlink:href="#DejaVuSans-67" transform="translate(1679.6875 0)"/>
      <use xlink:href="#DejaVuSans-6c" transform="translate(1743.164062 0)"/>
      <use xlink:href="#DejaVuSans-65" transform="translate(1770.947266 0)"/>
      <use xlink:href="#DejaVuSans-5f" transform="translate(1832.470703 0)"/>
      <use xlink:href="#DejaVuSans-6c" transform="translate(1882.470703 0)"/>
      <use xlink:href="#DejaVuSans-29" transform="translate(1910.253906 0)"/>
     </g>
    </g>
   </g>
   <g id="matplotlib.axis_2">
    <g id="ytick_1">
     <g id="line2d_7">
      <defs>
       <path id="m688bbcdff5" d="M 0 0 
L -3.5 0 
" style="stroke: #000000; stroke-width: 0.8"/>
      </defs>
      <g>
       <use xlink:href="#m688bbcdff5" x="90" y="470.573832" style="stroke: #000000; stroke-width: 0.8"/>
      </g>
     </g>
     <g id="text_8">
      <!-- −0.003 -->
      <g transform="translate(45.992188 474.373051) scale(0.1 -0.1)">
       <defs>
        <path id="DejaVuSans-2212" d="M 678 2272 
L 4684 2272 
L 4684 1741 
L 678 1741 
L 678 2272 
z
" transform="scale(0.015625)"/>
        <path id="DejaVuSans-33" d="M 2597 2516 
Q 3050 2419 3304 2112 
Q 3559 1806 3559 1356 
Q 3559 666 3084 287 
Q 2609 -91 1734 -91 
Q 1441 -91 1130 -33 
Q 819 25 488 141 
L 488 750 
Q 750 597 1062 519 
Q 1375 441 1716 441 
Q 2309 441 2620 675 
Q 2931 909 2931 1356 
Q 2931 1769 2642 2001 
Q 2353 2234 1838 2234 
L 1294 2234 
L 1294 2753 
L 1863 2753 
Q 2328 2753 2575 2939 
Q 2822 3125 2822 3475 
Q 2822 3834 2567 4026 
Q 2313 4219 1838 4219 
Q 1578 4219 1281 4162 
Q 984 4106 628 3988 
L 628 4550 
Q 988 4650 1302 4700 
Q 1616 4750 1894 4750 
Q 2613 4750 3031 4423 
Q 3450 4097 3450 3541 
Q 3450 3153 3228 2886 
Q 3006 2619 2597 2516 
z
" transform="scale(0.015625)"/>
       </defs>
       <use xlink:href="#DejaVuSans-2212"/>
       <use xlink:href="#DejaVuSans-30" transform="translate(83.789062 0)"/>
       <use xlink:href="#DejaVuSans-2e" transform="translate(147.412109 0)"/>
       <use xlink:href="#DejaVuSans-30" transform="translate(179.199219 0)"/>
       <use xlink:href="#DejaVuSans-30" transform="translate(242.822266 0)"/>
       <use xlink:href="#DejaVuSans-33" transform="translate(306.445312 0)"/>
      </g>
     </g>
    </g>
    <g id="ytick_2">
     <g id="line2d_8">
      <g>
       <use xlink:href="#m688bbcdff5" x="90" y="403.533563" style="stroke: #000000; stroke-width: 0.8"/>
      </g>
     </g>
     <g id="text_9">
      <!-- −0.002 -->
      <g transform="translate(45.992188 407.332782) scale(0.1 -0.1)">
       <use xlink:href="#DejaVuSans-2212"/>
       <use xlink:href="#DejaVuSans-30" transform="translate(83.789062 0)"/>
       <use xlink:href="#DejaVuSans-2e" transform="translate(147.412109 0)"/>
       <use xlink:href="#DejaVuSans-30" transform="translate(179.199219 0)"/>
       <use xlink:href="#DejaVuSans-30" transform="translate(242.822266 0)"/>
       <use xlink:href="#DejaVuSans-32" transform="translate(306.445312 0)"/>
      </g>
     </g>
    </g>
    <g id="ytick_3">
     <g id="line2d_9">
      <g>
       <use xlink:href="#m688bbcdff5" x="90" y="336.493293" style="stroke: #000000; stroke-width: 0.8"/>
      </g>
     </g>
     <g id="text_10">
      <!-- −0.001 -->
      <g transform="translate(45.992188 340.292512) scale(0.1 -0.1)">
       <use xlink:href="#DejaVuSans-2212"/>
       <use xlink:href="#DejaVuSans-30" transform="translate(83.789062 0)"/>
       <use xlink:href="#DejaVuSans-2e" transform="translate(147.412109 0)"/>
       <use xlink:href="#DejaVuSans-30" transform="translate(179.199219 0)"/>
       <use xlink:href="#DejaVuSans-30" transform="translate(242.822266 0)"/>
       <use xlink:href="#DejaVuSans-31" transform="translate(306.445312 0)"/>
      </g>
     </g>
    </g>
    <g id="ytick_4">
     <g id="line2d_10">
      <g>
       <use xlink:href="#m688bbcdff5" x="90" y="269.453024" style="stroke: #000000; stroke-width: 0.8"/>
      </g>
     </g>
     <g id="text_11">
      <!-- 0.000 -->
      <g transform="translate(54.371875 273.252243) scale(0.1 -0.1)">
       <use xlink:href="#DejaVuSans-30"/>
       <use xlink:href="#DejaVuSans-2e" transform="translate(63.623047 0)"/>
       <use xlink:href="#DejaVuSans-30" transform="translate(95.410156 0)"/>
       <use xlink:href="#DejaVuSans-30" transform="translate(159.033203 0)"/>
       <use xlink:href="#DejaVuSans-30" transform="translate(222.65625 0)"/>
      </g>
     </g>
    </g>
    <g id="ytick_5">
     <g id="line2d_11">
      <g>
       <use xlink:href="#m688bbcdff5" x="90" y="202.412754" style="stroke: #000000; stroke-width: 0.8"/>
      </g>
     </g>
     <g id="text_12">
      <!-- 0.001 -->
      <g transform="translate(54.371875 206.211973) scale(0.1 -0.1)">
       <use xlink:href="#DejaVuSans-30"/>
       <use xlink:href="#DejaVuSans-2e" transform="translate(63.623047 0)"/>
       <use xlink:href="#DejaVuSans-30" transform="translate(95.410156 0)"/>
       <use xlink:href="#DejaVuSans-30" transform="translate(159.033203 0)"/>
       <use xlink:href="#DejaVuSans-31" transform="translate(222.65625 0)"/>
      </g>
     </g>
    </g>
    <g id="ytick_6">
     <g id="line2d_12">
      <g>
       <use xlink:href="#m688bbcdff5" x="90" y="135.372485" style="stroke: #000000; stroke-width: 0.8"/>
      </g>
     </g>
     <g id="text_13">
      <!-- 0.002 -->
      <g transform="translate(54.371875 139.171704) scale(0.1 -0.1)">
       <use xlink:href="#DejaVuSans-30"/>
       <use xlink:href="#DejaVuSans-2e" transform="translate(63.623047 0)"/>
       <use xlink:href="#DejaVuSans-30" transform="translate(95.410156 0)"/>
       <use xlink:href="#DejaVuSans-30" transform="translate(159.033203 0)"/>
       <use xlink:href="#DejaVuSans-32" transform="translate(222.65625 0)"/>
      </g>
     </g>
    </g>
    <g id="text_14">
     <!-- Dependent joint value (walker_knee_l_translation3) -->
     <g transform="translate(39.634375 419.458125) rotate(-90) scale(0.1 -0.1)">
      <defs>
       <path id="DejaVuSans-44" d="M 1259 4147 
L 1259 519 
L 2022 519 
Q 2988 519 3436 956 
Q 3884 1394 3884 2338 
Q 3884 3275 3436 3711 
Q 2988 4147 2022 4147 
L 1259 4147 
z
M 628 4666 
L 1925 4666 
Q 3281 4666 3915 4102 
Q 4550 3538 4550 2338 
Q 4550 1131 3912 565 
Q 3275 0 1925 0 
L 628 0 
L 628 4666 
z
" transform="scale(0.015625)"/>
       <path id="DejaVuSans-77" d="M 269 3500 
L 844 3500 
L 1563 769 
L 2278 3500 
L 2956 3500 
L 3675 769 
L 4391 3500 
L 4966 3500 
L 4050 0 
L 3372 0 
L 2619 2869 
L 1863 0 
L 1184 0 
L 269 3500 
z
" transform="scale(0.015625)"/>
       <path id="DejaVuSans-72" d="M 2631 2963 
Q 2534 3019 2420 3045 
Q 2306 3072 2169 3072 
Q 1681 3072 1420 2755 
Q 1159 2438 1159 1844 
L 1159 0 
L 581 0 
L 581 3500 
L 1159 3500 
L 1159 2956 
Q 1341 3275 1631 3429 
Q 1922 3584 2338 3584 
Q 2397 3584 2469 3576 
Q 2541 3569 2628 3553 
L 2631 2963 
z
" transform="scale(0.015625)"/>
       <path id="DejaVuSans-73" d="M 2834 3397 
L 2834 2853 
Q 2591 2978 2328 3040 
Q 2066 3103 1784 3103 
Q 1356 3103 1142 2972 
Q 928 2841 928 2578 
Q 928 2378 1081 2264 
Q 1234 2150 1697 2047 
L 1894 2003 
Q 2506 1872 2764 1633 
Q 3022 1394 3022 966 
Q 3022 478 2636 193 
Q 2250 -91 1575 -91 
Q 1294 -91 989 -36 
Q 684 19 347 128 
L 347 722 
Q 666 556 975 473 
Q 1284 391 1588 391 
Q 1994 391 2212 530 
Q 2431 669 2431 922 
Q 2431 1156 2273 1281 
Q 2116 1406 1581 1522 
L 1381 1569 
Q 847 1681 609 1914 
Q 372 2147 372 2553 
Q 372 3047 722 3315 
Q 1072 3584 1716 3584 
Q 2034 3584 2315 3537 
Q 2597 3491 2834 3397 
z
" transform="scale(0.015625)"/>
      </defs>
      <use xlink:href="#DejaVuSans-44"/>
      <use xlink:href="#DejaVuSans-65" transform="translate(77.001953 0)"/>
      <use xlink:href="#DejaVuSans-70" transform="translate(138.525391 0)"/>
      <use xlink:href="#DejaVuSans-65" transform="translate(202.001953 0)"/>
      <use xlink:href="#DejaVuSans-6e" transform="translate(263.525391 0)"/>
      <use xlink:href="#DejaVuSans-64" transform="translate(326.904297 0)"/>
      <use xlink:href="#DejaVuSans-65" transform="translate(390.380859 0)"/>
      <use xlink:href="#DejaVuSans-6e" transform="translate(451.904297 0)"/>
      <use xlink:href="#DejaVuSans-74" transform="translate(515.283203 0)"/>
      <use xlink:href="#DejaVuSans-20" transform="translate(554.492188 0)"/>
      <use xlink:href="#DejaVuSans-6a" transform="translate(586.279297 0)"/>
      <use xlink:href="#DejaVuSans-6f" transform="translate(614.0625 0)"/>
      <use xlink:href="#DejaVuSans-69" transform="translate(675.244141 0)"/>
      <use xlink:href="#DejaVuSans-6e" transform="translate(703.027344 0)"/>
      <use xlink:href="#DejaVuSans-74" transform="translate(766.40625 0)"/>
      <use xlink:href="#DejaVuSans-20" transform="translate(805.615234 0)"/>
      <use xlink:href="#DejaVuSans-76" transform="translate(837.402344 0)"/>
      <use xlink:href="#DejaVuSans-61" transform="translate(896.582031 0)"/>
      <use xlink:href="#DejaVuSans-6c" transform="translate(957.861328 0)"/>
      <use xlink:href="#DejaVuSans-75" transform="translate(985.644531 0)"/>
      <use xlink:href="#DejaVuSans-65" transform="translate(1049.023438 0)"/>
      <use xlink:href="#DejaVuSans-20" transform="translate(1110.546875 0)"/>
      <use xlink:href="#DejaVuSans-28" transform="translate(1142.333984 0)"/>
      <use xlink:href="#DejaVuSans-77" transform="translate(1181.347656 0)"/>
      <use xlink:href="#DejaVuSans-61" transform="translate(1263.134766 0)"/>
      <use xlink:href="#DejaVuSans-6c" transform="translate(1324.414062 0)"/>
      <use xlink:href="#DejaVuSans-6b" transform="translate(1352.197266 0)"/>
      <use xlink:href="#DejaVuSans-65" transform="translate(1406.482422 0)"/>
      <use xlink:href="#DejaVuSans-72" transform="translate(1468.005859 0)"/>
      <use xlink:href="#DejaVuSans-5f" transform="translate(1509.119141 0)"/>
      <use xlink:href="#DejaVuSans-6b" transform="translate(1559.119141 0)"/>
      <use xlink:href="#DejaVuSans-6e" transform="translate(1617.029297 0)"/>
      <use xlink:href="#DejaVuSans-65" transform="translate(1680.408203 0)"/>
      <use xlink:href="#DejaVuSans-65" transform="translate(1741.931641 0)"/>
      <use xlink:href="#DejaVuSans-5f" transform="translate(1803.455078 0)"/>
      <use xlink:href="#DejaVuSans-6c" transform="translate(1853.455078 0)"/>
      <use xlink:href="#DejaVuSans-5f" transform="translate(1881.238281 0)"/>
      <use xlink:href="#DejaVuSans-74" transform="translate(1931.238281 0)"/>
      <use xlink:href="#DejaVuSans-72" transform="translate(1970.447266 0)"/>
      <use xlink:href="#DejaVuSans-61" transform="translate(2011.560547 0)"/>
      <use xlink:href="#DejaVuSans-6e" transform="translate(2072.839844 0)"/>
      <use xlink:href="#DejaVuSans-73" transform="translate(2136.21875 0)"/>
      <use xlink:href="#DejaVuSans-6c" transform="translate(2188.318359 0)"/>
      <use xlink:href="#DejaVuSans-61" transform="translate(2216.101562 0)"/>
      <use xlink:href="#DejaVuSans-74" transform="translate(2277.380859 0)"/>
      <use xlink:href="#DejaVuSans-69" transform="translate(2316.589844 0)"/>
      <use xlink:href="#DejaVuSans-6f" transform="translate(2344.373047 0)"/>
      <use xlink:href="#DejaVuSans-6e" transform="translate(2405.554688 0)"/>
      <use xlink:href="#DejaVuSans-33" transform="translate(2468.933594 0)"/>
      <use xlink:href="#DejaVuSans-29" transform="translate(2532.556641 0)"/>
     </g>
    </g>
   </g>
   <g id="line2d_13">
    <defs>
     <path id="mfd0cdc29c6" d="M 0 2.5 
C 0.663008 2.5 1.29895 2.236584 1.767767 1.767767 
C 2.236584 1.29895 2.5 0.663008 2.5 0 
C 2.5 -0.663008 2.236584 -1.29895 1.767767 -1.767767 
C 1.29895 -2.236584 0.663008 -2.5 0 -2.5 
C -0.663008 -2.5 -1.29895 -2.236584 -1.767767 -1.767767 
C -2.236584 -1.29895 -2.5 -0.663008 -2.5 0 
C -2.5 0.663008 -2.236584 1.29895 -1.767767 1.767767 
C -1.29895 2.236584 -0.663008 2.5 0 2.5 
z
" style="stroke: #1f77b4"/>
    </defs>
    <g clip-path="url(#p290fff3263)">
     <use xlink:href="#mfd0cdc29c6" x="115.363636" y="268.56354" style="fill: #1f77b4; stroke: #1f77b4"/>
     <use xlink:href="#mfd0cdc29c6" x="120.487603" y="277.99104" style="fill: #1f77b4; stroke: #1f77b4"/>
     <use xlink:href="#mfd0cdc29c6" x="125.61157" y="287.439817" style="fill: #1f77b4; stroke: #1f77b4"/>
     <use xlink:href="#mfd0cdc29c6" x="130.735537" y="296.88641" style="fill: #1f77b4; stroke: #1f77b4"/>
     <use xlink:href="#mfd0cdc29c6" x="135.859504" y="306.308008" style="fill: #1f77b4; stroke: #1f77b4"/>
     <use xlink:href="#mfd0cdc29c6" x="140.983471" y="315.682459" style="fill: #1f77b4; stroke: #1f77b4"/>
     <use xlink:href="#mfd0cdc29c6" x="146.107438" y="324.988263" style="fill: #1f77b4; stroke: #1f77b4"/>
     <use xlink:href="#mfd0cdc29c6" x="151.231405" y="334.204575" style="fill: #1f77b4; stroke: #1f77b4"/>
     <use xlink:href="#mfd0cdc29c6" x="156.355372" y="343.311207" style="fill: #1f77b4; stroke: #1f77b4"/>
     <use xlink:href="#mfd0cdc29c6" x="161.479339" y="352.288622" style="fill: #1f77b4; stroke: #1f77b4"/>
     <use xlink:href="#mfd0cdc29c6" x="166.603306" y="361.117941" style="fill: #1f77b4; stroke: #1f77b4"/>
     <use xlink:href="#mfd0cdc29c6" x="171.727273" y="369.780937" style="fill: #1f77b4; stroke: #1f77b4"/>
     <use xlink:href="#mfd0cdc29c6" x="176.85124" y="378.260039" style="fill: #1f77b4; stroke: #1f77b4"/>
     <use xlink:href="#mfd0cdc29c6" x="181.975207" y="386.53833" style="fill: #1f77b4; stroke: #1f77b4"/>
     <use xlink:href="#mfd0cdc29c6" x="187.099174" y="394.599548" style="fill: #1f77b4; stroke: #1f77b4"/>
     <use xlink:href="#mfd0cdc29c6" x="192.22314" y="402.428087" style="fill: #1f77b4; stroke: #1f77b4"/>
     <use xlink:href="#mfd0cdc29c6" x="197.347107" y="410.008993" style="fill: #1f77b4; stroke: #1f77b4"/>
     <use xlink:href="#mfd0cdc29c6" x="202.471074" y="417.327969" style="fill: #1f77b4; stroke: #1f77b4"/>
     <use xlink:href="#mfd0cdc29c6" x="207.595041" y="424.371371" style="fill: #1f77b4; stroke: #1f77b4"/>
     <use xlink:href="#mfd0cdc29c6" x="212.719008" y="431.12621" style="fill: #1f77b4; stroke: #1f77b4"/>
     <use xlink:href="#mfd0cdc29c6" x="217.842975" y="437.580152" style="fill: #1f77b4; stroke: #1f77b4"/>
     <use xlink:href="#mfd0cdc29c6" x="222.966942" y="443.721518" style="fill: #1f77b4; stroke: #1f77b4"/>
     <use xlink:href="#mfd0cdc29c6" x="228.090909" y="449.539283" style="fill: #1f77b4; stroke: #1f77b4"/>
     <use xlink:href="#mfd0cdc29c6" x="233.214876" y="455.023077" style="fill: #1f77b4; stroke: #1f77b4"/>
     <use xlink:href="#mfd0cdc29c6" x="238.338843" y="460.163184" style="fill: #1f77b4; stroke: #1f77b4"/>
     <use xlink:href="#mfd0cdc29c6" x="243.46281" y="464.950544" style="fill: #1f77b4; stroke: #1f77b4"/>
     <use xlink:href="#mfd0cdc29c6" x="248.586777" y="469.37675" style="fill: #1f77b4; stroke: #1f77b4"/>
     <use xlink:href="#mfd0cdc29c6" x="253.710744" y="473.434051" style="fill: #1f77b4; stroke: #1f77b4"/>
     <use xlink:href="#mfd0cdc29c6" x="258.834711" y="477.11535" style="fill: #1f77b4; stroke: #1f77b4"/>
     <use xlink:href="#mfd0cdc29c6" x="263.958678" y="480.414204" style="fill: #1f77b4; stroke: #1f77b4"/>
     <use xlink:href="#mfd0cdc29c6" x="269.082645" y="483.324826" style="fill: #1f77b4; stroke: #1f77b4"/>
     <use xlink:href="#mfd0cdc29c6" x="274.206612" y="485.842083" style="fill: #1f77b4; stroke: #1f77b4"/>
     <use xlink:href="#mfd0cdc29c6" x="279.330579" y="487.961497" style="fill: #1f77b4; stroke: #1f77b4"/>
     <use xlink:href="#mfd0cdc29c6" x="284.454545" y="489.679244" style="fill: #1f77b4; stroke: #1f77b4"/>
     <use xlink:href="#mfd0cdc29c6" x="289.578512" y="490.992155" style="fill: #1f77b4; stroke: #1f77b4"/>
     <use xlink:href="#mfd0cdc29c6" x="294.702479" y="491.897715" style="fill: #1f77b4; stroke: #1f77b4"/>
     <use xlink:href="#mfd0cdc29c6" x="299.826446" y="492.394065" style="fill: #1f77b4; stroke: #1f77b4"/>
     <use xlink:href="#mfd0cdc29c6" x="304.950413" y="492.48" style="fill: #1f77b4; stroke: #1f77b4"/>
     <use xlink:href="#mfd0cdc29c6" x="310.07438" y="492.154969" style="fill: #1f77b4; stroke: #1f77b4"/>
     <use xlink:href="#mfd0cdc29c6" x="315.198347" y="491.419077" style="fill: #1f77b4; stroke: #1f77b4"/>
     <use xlink:href="#mfd0cdc29c6" x="320.322314" y="490.273082" style="fill: #1f77b4; stroke: #1f77b4"/>
     <use xlink:href="#mfd0cdc29c6" x="325.446281" y="488.718398" style="fill: #1f77b4; stroke: #1f77b4"/>
     <use xlink:href="#mfd0cdc29c6" x="330.570248" y="486.757093" style="fill: #1f77b4; stroke: #1f77b4"/>
     <use xlink:href="#mfd0cdc29c6" x="335.694215" y="484.391889" style="fill: #1f77b4; stroke: #1f77b4"/>
     <use xlink:href="#mfd0cdc29c6" x="340.818182" y="481.626165" style="fill: #1f77b4; stroke: #1f77b4"/>
     <use xlink:href="#mfd0cdc29c6" x="345.942149" y="478.463952" style="fill: #1f77b4; stroke: #1f77b4"/>
     <use xlink:href="#mfd0cdc29c6" x="351.066116" y="474.909937" style="fill: #1f77b4; stroke: #1f77b4"/>
     <use xlink:href="#mfd0cdc29c6" x="356.190083" y="470.969462" style="fill: #1f77b4; stroke: #1f77b4"/>
     <use xlink:href="#mfd0cdc29c6" x="361.31405" y="466.648522" style="fill: #1f77b4; stroke: #1f77b4"/>
     <use xlink:href="#mfd0cdc29c6" x="366.438017" y="461.953768" style="fill: #1f77b4; stroke: #1f77b4"/>
     <use xlink:href="#mfd0cdc29c6" x="371.561983" y="456.892505" style="fill: #1f77b4; stroke: #1f77b4"/>
     <use xlink:href="#mfd0cdc29c6" x="376.68595" y="451.472694" style="fill: #1f77b4; stroke: #1f77b4"/>
     <use xlink:href="#mfd0cdc29c6" x="381.809917" y="445.702949" style="fill: #1f77b4; stroke: #1f77b4"/>
     <use xlink:href="#mfd0cdc29c6" x="386.933884" y="439.592539" style="fill: #1f77b4; stroke: #1f77b4"/>
     <use xlink:href="#mfd0cdc29c6" x="392.057851" y="433.151388" style="fill: #1f77b4; stroke: #1f77b4"/>
     <use xlink:href="#mfd0cdc29c6" x="397.181818" y="426.390075" style="fill: #1f77b4; stroke: #1f77b4"/>
     <use xlink:href="#mfd0cdc29c6" x="402.305785" y="419.319832" style="fill: #1f77b4; stroke: #1f77b4"/>
     <use xlink:href="#mfd0cdc29c6" x="407.429752" y="411.952549" style="fill: #1f77b4; stroke: #1f77b4"/>
     <use xlink:href="#mfd0cdc29c6" x="412.553719" y="404.300766" style="fill: #1f77b4; stroke: #1f77b4"/>
     <use xlink:href="#mfd0cdc29c6" x="417.677686" y="396.377682" style="fill: #1f77b4; stroke: #1f77b4"/>
     <use xlink:href="#mfd0cdc29c6" x="422.801653" y="388.197148" style="fill: #1f77b4; stroke: #1f77b4"/>
     <use xlink:href="#mfd0cdc29c6" x="427.92562" y="379.77367" style="fill: #1f77b4; stroke: #1f77b4"/>
     <use xlink:href="#mfd0cdc29c6" x="433.049587" y="371.122411" style="fill: #1f77b4; stroke: #1f77b4"/>
     <use xlink:href="#mfd0cdc29c6" x="438.173554" y="362.259184" style="fill: #1f77b4; stroke: #1f77b4"/>
     <use xlink:href="#mfd0cdc29c6" x="443.297521" y="353.200461" style="fill: #1f77b4; stroke: #1f77b4"/>
     <use xlink:href="#mfd0cdc29c6" x="448.421488" y="343.963367" style="fill: #1f77b4; stroke: #1f77b4"/>
     <use xlink:href="#mfd0cdc29c6" x="453.545455" y="334.565681" style="fill: #1f77b4; stroke: #1f77b4"/>
     <use xlink:href="#mfd0cdc29c6" x="458.669421" y="325.025838" style="fill: #1f77b4; stroke: #1f77b4"/>
     <use xlink:href="#mfd0cdc29c6" x="463.793388" y="315.362927" style="fill: #1f77b4; stroke: #1f77b4"/>
     <use xlink:href="#mfd0cdc29c6" x="468.917355" y="305.596691" style="fill: #1f77b4; stroke: #1f77b4"/>
     <use xlink:href="#mfd0cdc29c6" x="474.041322" y="295.747528" style="fill: #1f77b4; stroke: #1f77b4"/>
     <use xlink:href="#mfd0cdc29c6" x="479.165289" y="285.836492" style="fill: #1f77b4; stroke: #1f77b4"/>
     <use xlink:href="#mfd0cdc29c6" x="484.289256" y="275.88529" style="fill: #1f77b4; stroke: #1f77b4"/>
     <use xlink:href="#mfd0cdc29c6" x="489.413223" y="265.916283" style="fill: #1f77b4; stroke: #1f77b4"/>
     <use xlink:href="#mfd0cdc29c6" x="494.53719" y="255.95249" style="fill: #1f77b4; stroke: #1f77b4"/>
     <use xlink:href="#mfd0cdc29c6" x="499.661157" y="246.017581" style="fill: #1f77b4; stroke: #1f77b4"/>
     <use xlink:href="#mfd0cdc29c6" x="504.785124" y="236.135883" style="fill: #1f77b4; stroke: #1f77b4"/>
     <use xlink:href="#mfd0cdc29c6" x="509.909091" y="226.332376" style="fill: #1f77b4; stroke: #1f77b4"/>
     <use xlink:href="#mfd0cdc29c6" x="515.033058" y="216.632696" style="fill: #1f77b4; stroke: #1f77b4"/>
     <use xlink:href="#mfd0cdc29c6" x="520.157025" y="207.063133" style="fill: #1f77b4; stroke: #1f77b4"/>
     <use xlink:href="#mfd0cdc29c6" x="525.280992" y="197.650631" style="fill: #1f77b4; stroke: #1f77b4"/>
     <use xlink:href="#mfd0cdc29c6" x="530.404959" y="188.42279" style="fill: #1f77b4; stroke: #1f77b4"/>
     <use xlink:href="#mfd0cdc29c6" x="535.528926" y="179.407864" style="fill: #1f77b4; stroke: #1f77b4"/>
     <use xlink:href="#mfd0cdc29c6" x="540.652893" y="170.634762" style="fill: #1f77b4; stroke: #1f77b4"/>
     <use xlink:href="#mfd0cdc29c6" x="545.77686" y="162.133046" style="fill: #1f77b4; stroke: #1f77b4"/>
     <use xlink:href="#mfd0cdc29c6" x="550.900826" y="153.932935" style="fill: #1f77b4; stroke: #1f77b4"/>
     <use xlink:href="#mfd0cdc29c6" x="556.024793" y="146.065302" style="fill: #1f77b4; stroke: #1f77b4"/>
     <use xlink:href="#mfd0cdc29c6" x="561.14876" y="138.561673" style="fill: #1f77b4; stroke: #1f77b4"/>
     <use xlink:href="#mfd0cdc29c6" x="566.272727" y="131.454231" style="fill: #1f77b4; stroke: #1f77b4"/>
     <use xlink:href="#mfd0cdc29c6" x="571.396694" y="124.775812" style="fill: #1f77b4; stroke: #1f77b4"/>
     <use xlink:href="#mfd0cdc29c6" x="576.520661" y="118.559907" style="fill: #1f77b4; stroke: #1f77b4"/>
     <use xlink:href="#mfd0cdc29c6" x="581.644628" y="112.840663" style="fill: #1f77b4; stroke: #1f77b4"/>
     <use xlink:href="#mfd0cdc29c6" x="586.768595" y="107.652878" style="fill: #1f77b4; stroke: #1f77b4"/>
     <use xlink:href="#mfd0cdc29c6" x="591.892562" y="103.03201" style="fill: #1f77b4; stroke: #1f77b4"/>
     <use xlink:href="#mfd0cdc29c6" x="597.016529" y="99.014167" style="fill: #1f77b4; stroke: #1f77b4"/>
     <use xlink:href="#mfd0cdc29c6" x="602.140496" y="95.636113" style="fill: #1f77b4; stroke: #1f77b4"/>
     <use xlink:href="#mfd0cdc29c6" x="607.264463" y="92.935269" style="fill: #1f77b4; stroke: #1f77b4"/>
     <use xlink:href="#mfd0cdc29c6" x="612.38843" y="90.949707" style="fill: #1f77b4; stroke: #1f77b4"/>
     <use xlink:href="#mfd0cdc29c6" x="617.512397" y="89.718157" style="fill: #1f77b4; stroke: #1f77b4"/>
     <use xlink:href="#mfd0cdc29c6" x="622.636364" y="89.28" style="fill: #1f77b4; stroke: #1f77b4"/>
    </g>
   </g>
   <g id="line2d_14">
    <path d="M 115.363636 268.56354 
L 120.487603 277.99104 
L 125.61157 287.439817 
L 130.735537 296.88641 
L 135.859504 306.308008 
L 140.983471 315.682459 
L 146.107438 324.988263 
L 151.231405 334.204575 
L 156.355372 343.311207 
L 161.479339 352.288622 
L 166.603306 361.117941 
L 171.727273 369.780937 
L 176.85124 378.260039 
L 181.975207 386.53833 
L 187.099174 394.599548 
L 192.22314 402.428087 
L 197.347107 410.008993 
L 202.471074 417.327969 
L 207.595041 424.371371 
L 212.719008 431.12621 
L 217.842975 437.580152 
L 222.966942 443.721518 
L 228.090909 449.539283 
L 233.214876 455.023077 
L 238.338843 460.163184 
L 243.46281 464.950544 
L 248.586777 469.37675 
L 253.710744 473.434051 
L 258.834711 477.11535 
L 263.958678 480.414204 
L 269.082645 483.324826 
L 274.206612 485.842083 
L 279.330579 487.961497 
L 284.454545 489.679244 
L 289.578512 490.992155 
L 294.702479 491.897715 
L 299.826446 492.394065 
L 304.950413 492.48 
L 310.07438 492.154969 
L 315.198347 491.419077 
L 320.322314 490.273082 
L 325.446281 488.718398 
L 330.570248 486.757093 
L 335.694215 484.391889 
L 340.818182 481.626165 
L 345.942149 478.463952 
L 351.066116 474.909937 
L 356.190083 470.969462 
L 361.31405 466.648522 
L 366.438017 461.953768 
L 371.561983 456.892505 
L 376.68595 451.472694 
L 381.809917 445.702949 
L 386.933884 439.592539 
L 392.057851 433.151388 
L 397.181818 426.390075 
L 402.305785 419.319832 
L 407.429752 411.952549 
L 412.553719 404.300766 
L 417.677686 396.377682 
L 422.801653 388.197148 
L 427.92562 379.77367 
L 433.049587 371.122411 
L 438.173554 362.259184 
L 443.297521 353.200461 
L 448.421488 343.963367 
L 453.545455 334.565681 
L 458.669421 325.025838 
L 463.793388 315.362927 
L 468.917355 305.596691 
L 474.041322 295.747528 
L 479.165289 285.836492 
L 484.289256 275.88529 
L 489.413223 265.916283 
L 494.53719 255.95249 
L 499.661157 246.017581 
L 504.785124 236.135883 
L 509.909091 226.332376 
L 515.033058 216.632696 
L 520.157025 207.063133 
L 525.280992 197.650631 
L 530.404959 188.42279 
L 535.528926 179.407864 
L 540.652893 170.634762 
L 545.77686 162.133046 
L 550.900826 153.932935 
L 556.024793 146.065302 
L 561.14876 138.561673 
L 566.272727 131.454231 
L 571.396694 124.775812 
L 576.520661 118.559907 
L 581.644628 112.840663 
L 586.768595 107.652878 
L 591.892562 103.03201 
L 597.016529 99.014167 
L 602.140496 95.636113 
L 607.264463 92.935269 
L 612.38843 90.949707 
L 617.512397 89.718157 
L 622.636364 89.28 
" clip-path="url(#p290fff3263)" style="fill: none; stroke: #ff7f0e; stroke-width: 1.5; stroke-linecap: square"/>
   </g>
   <g id="patch_3">
    <path d="M 90 512.64 
L 90 69.12 
" style="fill: none; stroke: #000000; stroke-width: 0.8; stroke-linejoin: miter; stroke-linecap: square"/>
   </g>
   <g id="patch_4">
    <path d="M 648 512.64 
L 648 69.12 
" style="fill: none; stroke: #000000; stroke-width: 0.8; stroke-linejoin: miter; stroke-linecap: square"/>
   </g>
   <g id="patch_5">
    <path d="M 90 512.64 
L 648 512.64 
" style="fill: none; stroke: #000000; stroke-width: 0.8; stroke-linejoin: miter; stroke-linecap: square"/>
   </g>
   <g id="patch_6">
    <path d="M 90 69.12 
L 648 69.12 
" style="fill: none; stroke: #000000; stroke-width: 0.8; stroke-linejoin: miter; stroke-linecap: square"/>
   </g>
   <g id="text_15">
    <!-- Approximation of dependent joint walker_knee_l_translation3 movement wrt independent joint knee_angle_l -->
    <g transform="translate(43.354688 63.12) scale(0.12 -0.12)">
     <defs>
      <path id="DejaVuSans-41" d="M 2188 4044 
L 1331 1722 
L 3047 1722 
L 2188 4044 
z
M 1831 4666 
L 2547 4666 
L 4325 0 
L 3669 0 
L 3244 1197 
L 1141 1197 
L 716 0 
L 50 0 
L 1831 4666 
z
" transform="scale(0.015625)"/>
      <path id="DejaVuSans-78" d="M 3513 3500 
L 2247 1797 
L 3578 0 
L 2900 0 
L 1881 1375 
L 863 0 
L 184 0 
L 1544 1831 
L 300 3500 
L 978 3500 
L 1906 2253 
L 2834 3500 
L 3513 3500 
z
" transform="scale(0.015625)"/>
      <path id="DejaVuSans-6d" d="M 3328 2828 
Q 3544 3216 3844 3400 
Q 4144 3584 4550 3584 
Q 5097 3584 5394 3201 
Q 5691 2819 5691 2113 
L 5691 0 
L 5113 0 
L 5113 2094 
Q 5113 2597 4934 2840 
Q 4756 3084 4391 3084 
Q 3944 3084 3684 2787 
Q 3425 2491 3425 1978 
L 3425 0 
L 2847 0 
L 2847 2094 
Q 2847 2600 2669 2842 
Q 2491 3084 2119 3084 
Q 1678 3084 1418 2786 
Q 1159 2488 1159 1978 
L 1159 0 
L 581 0 
L 581 3500 
L 1159 3500 
L 1159 2956 
Q 1356 3278 1631 3431 
Q 1906 3584 2284 3584 
Q 2666 3584 2933 3390 
Q 3200 3197 3328 2828 
z
" transform="scale(0.015625)"/>
      <path id="DejaVuSans-66" d="M 2375 4863 
L 2375 4384 
L 1825 4384 
Q 1516 4384 1395 4259 
Q 1275 4134 1275 3809 
L 1275 3500 
L 2222 3500 
L 2222 3053 
L 1275 3053 
L 1275 0 
L 697 0 
L 697 3053 
L 147 3053 
L 147 3500 
L 697 3500 
L 697 3744 
Q 697 4328 969 4595 
Q 1241 4863 1831 4863 
L 2375 4863 
z
" transform="scale(0.015625)"/>
     </defs>
     <use xlink:href="#DejaVuSans-41"/>
     <use xlink:href="#DejaVuSans-70" transform="translate(68.408203 0)"/>
     <use xlink:href="#DejaVuSans-70" transform="translate(131.884766 0)"/>
     <use xlink:href="#DejaVuSans-72" transform="translate(195.361328 0)"/>
     <use xlink:href="#DejaVuSans-6f" transform="translate(234.224609 0)"/>
     <use xlink:href="#DejaVuSans-78" transform="translate(292.28125 0)"/>
     <use xlink:href="#DejaVuSans-69" transform="translate(351.460938 0)"/>
     <use xlink:href="#DejaVuSans-6d" transform="translate(379.244141 0)"/>
     <use xlink:href="#DejaVuSans-61" transform="translate(476.65625 0)"/>
     <use xlink:href="#DejaVuSans-74" transform="translate(537.935547 0)"/>
     <use xlink:href="#DejaVuSans-69" transform="translate(577.144531 0)"/>
     <use xlink:href="#DejaVuSans-6f" transform="translate(604.927734 0)"/>
     <use xlink:href="#DejaVuSans-6e" transform="translate(666.109375 0)"/>
     <use xlink:href="#DejaVuSans-20" transform="translate(729.488281 0)"/>
     <use xlink:href="#DejaVuSans-6f" transform="translate(761.275391 0)"/>
     <use xlink:href="#DejaVuSans-66" transform="translate(822.457031 0)"/>
     <use xlink:href="#DejaVuSans-20" transform="translate(857.662109 0)"/>
     <use xlink:href="#DejaVuSans-64" transform="translate(889.449219 0)"/>
     <use xlink:href="#DejaVuSans-65" transform="translate(952.925781 0)"/>
     <use xlink:href="#DejaVuSans-70" transform="translate(1014.449219 0)"/>
     <use xlink:href="#DejaVuSans-65" transform="translate(1077.925781 0)"/>
     <use xlink:href="#DejaVuSans-6e" transform="translate(1139.449219 0)"/>
     <use xlink:href="#DejaVuSans-64" transform="translate(1202.828125 0)"/>
     <use xlink:href="#DejaVuSans-65" transform="translate(1266.304688 0)"/>
     <use xlink:href="#DejaVuSans-6e" transform="translate(1327.828125 0)"/>
     <use xlink:href="#DejaVuSans-74" transform="translate(1391.207031 0)"/>
     <use xlink:href="#DejaVuSans-20" transform="translate(1430.416016 0)"/>
     <use xlink:href="#DejaVuSans-6a" transform="translate(1462.203125 0)"/>
     <use xlink:href="#DejaVuSans-6f" transform="translate(1489.986328 0)"/>
     <use xlink:href="#DejaVuSans-69" transform="translate(1551.167969 0)"/>
     <use xlink:href="#DejaVuSans-6e" transform="translate(1578.951172 0)"/>
     <use xlink:href="#DejaVuSans-74" transform="translate(1642.330078 0)"/>
     <use xlink:href="#DejaVuSans-20" transform="translate(1681.539062 0)"/>
     <use xlink:href="#DejaVuSans-77" transform="translate(1713.326172 0)"/>
     <use xlink:href="#DejaVuSans-61" transform="translate(1795.113281 0)"/>
     <use xlink:href="#DejaVuSans-6c" transform="translate(1856.392578 0)"/>
     <use xlink:href="#DejaVuSans-6b" transform="translate(1884.175781 0)"/>
     <use xlink:href="#DejaVuSans-65" transform="translate(1938.460938 0)"/>
     <use xlink:href="#DejaVuSans-72" transform="translate(1999.984375 0)"/>
     <use xlink:href="#DejaVuSans-5f" transform="translate(2041.097656 0)"/>
     <use xlink:href="#DejaVuSans-6b" transform="translate(2091.097656 0)"/>
     <use xlink:href="#DejaVuSans-6e" transform="translate(2149.007812 0)"/>
     <use xlink:href="#DejaVuSans-65" transform="translate(2212.386719 0)"/>
     <use xlink:href="#DejaVuSans-65" transform="translate(2273.910156 0)"/>
     <use xlink:href="#DejaVuSans-5f" transform="translate(2335.433594 0)"/>
     <use xlink:href="#DejaVuSans-6c" transform="translate(2385.433594 0)"/>
     <use xlink:href="#DejaVuSans-5f" transform="translate(2413.216797 0)"/>
     <use xlink:href="#DejaVuSans-74" transform="translate(2463.216797 0)"/>
     <use xlink:href="#DejaVuSans-72" transform="translate(2502.425781 0)"/>
     <use xlink:href="#DejaVuSans-61" transform="translate(2543.539062 0)"/>
     <use xlink:href="#DejaVuSans-6e" transform="translate(2604.818359 0)"/>
     <use xlink:href="#DejaVuSans-73" transform="translate(2668.197266 0)"/>
     <use xlink:href="#DejaVuSans-6c" transform="translate(2720.296875 0)"/>
     <use xlink:href="#DejaVuSans-61" transform="translate(2748.080078 0)"/>
     <use xlink:href="#DejaVuSans-74" transform="translate(2809.359375 0)"/>
     <use xlink:href="#DejaVuSans-69" transform="translate(2848.568359 0)"/>
     <use xlink:href="#DejaVuSans-6f" transform="translate(2876.351562 0)"/>
     <use xlink:href="#DejaVuSans-6e" transform="translate(2937.533203 0)"/>
     <use xlink:href="#DejaVuSans-33" transform="translate(3000.912109 0)"/>
     <use xlink:href="#DejaVuSans-20" transform="translate(3064.535156 0)"/>
     <use xlink:href="#DejaVuSans-6d" transform="translate(3096.322266 0)"/>
     <use xlink:href="#DejaVuSans-6f" transform="translate(3193.734375 0)"/>
     <use xlink:href="#DejaVuSans-76" transform="translate(3254.916016 0)"/>
     <use xlink:href="#DejaVuSans-65" transform="translate(3314.095703 0)"/>
     <use xlink:href="#DejaVuSans-6d" transform="translate(3375.619141 0)"/>
     <use xlink:href="#DejaVuSans-65" transform="translate(3473.03125 0)"/>
     <use xlink:href="#DejaVuSans-6e" transform="translate(3534.554688 0)"/>
     <use xlink:href="#DejaVuSans-74" transform="translate(3597.933594 0)"/>
     <use xlink:href="#DejaVuSans-20" transform="translate(3637.142578 0)"/>
     <use xlink:href="#DejaVuSans-77" transform="translate(3668.929688 0)"/>
     <use xlink:href="#DejaVuSans-72" transform="translate(3750.716797 0)"/>
     <use xlink:href="#DejaVuSans-74" transform="translate(3791.830078 0)"/>
     <use xlink:href="#DejaVuSans-20" transform="translate(3831.039062 0)"/>
     <use xlink:href="#DejaVuSans-69" transform="translate(3862.826172 0)"/>
     <use xlink:href="#DejaVuSans-6e" transform="translate(3890.609375 0)"/>
     <use xlink:href="#DejaVuSans-64" transform="translate(3953.988281 0)"/>
     <use xlink:href="#DejaVuSans-65" transform="translate(4017.464844 0)"/>
     <use xlink:href="#DejaVuSans-70" transform="translate(4078.988281 0)"/>
     <use xlink:href="#DejaVuSans-65" transform="translate(4142.464844 0)"/>
     <use xlink:href="#DejaVuSans-6e" transform="translate(4203.988281 0)"/>
     <use xlink:href="#DejaVuSans-64" transform="translate(4267.367188 0)"/>
     <use xlink:href="#DejaVuSans-65" transform="translate(4330.84375 0)"/>
     <use xlink:href="#DejaVuSans-6e" transform="translate(4392.367188 0)"/>
     <use xlink:href="#DejaVuSans-74" transform="translate(4455.746094 0)"/>
     <use xlink:href="#DejaVuSans-20" transform="translate(4494.955078 0)"/>
     <use xlink:href="#DejaVuSans-6a" transform="translate(4526.742188 0)"/>
     <use xlink:href="#DejaVuSans-6f" transform="translate(4554.525391 0)"/>
     <use xlink:href="#DejaVuSans-69" transform="translate(4615.707031 0)"/>
     <use xlink:href="#DejaVuSans-6e" transform="translate(4643.490234 0)"/>
     <use xlink:href="#DejaVuSans-74" transform="translate(4706.869141 0)"/>
     <use xlink:href="#DejaVuSans-20" transform="translate(4746.078125 0)"/>
     <use xlink:href="#DejaVuSans-6b" transform="translate(4777.865234 0)"/>
     <use xlink:href="#DejaVuSans-6e" transform="translate(4835.775391 0)"/>
     <use xlink:href="#DejaVuSans-65" transform="translate(4899.154297 0)"/>
     <use xlink:href="#DejaVuSans-65" transform="translate(4960.677734 0)"/>
     <use xlink:href="#DejaVuSans-5f" transform="translate(5022.201172 0)"/>
     <use xlink:href="#DejaVuSans-61" transform="translate(5072.201172 0)"/>
     <use xlink:href="#DejaVuSans-6e" transform="translate(5133.480469 0)"/>
     <use xlink:href="#DejaVuSans-67" transform="translate(5196.859375 0)"/>
     <use xlink:href="#DejaVuSans-6c" transform="translate(5260.335938 0)"/>
     <use xlink:href="#DejaVuSans-65" transform="translate(5288.119141 0)"/>
     <use xlink:href="#DejaVuSans-5f" transform="translate(5349.642578 0)"/>
     <use xlink:href="#DejaVuSans-6c" transform="translate(5399.642578 0)"/>
    </g>
   </g>
   <g id="legend_1">
    <g id="patch_7">
     <path d="M 97 106.47625 
L 267.139063 106.47625 
Q 269.139063 106.47625 269.139063 104.47625 
L 269.139063 76.12 
Q 269.139063 74.12 267.139063 74.12 
L 97 74.12 
Q 95 74.12 95 76.12 
L 95 104.47625 
Q 95 106.47625 97 106.47625 
z
" style="fill: #ffffff; opacity: 0.8; stroke: #cccccc; stroke-linejoin: miter"/>
    </g>
    <g id="line2d_15">
     <g>
      <use xlink:href="#mfd0cdc29c6" x="109" y="82.218438" style="fill: #1f77b4; stroke: #1f77b4"/>
     </g>
    </g>
    <g id="text_16">
     <!-- OpenSim spline data points -->
     <g transform="translate(127 85.718438) scale(0.1 -0.1)">
      <defs>
       <path id="DejaVuSans-4f" d="M 2522 4238 
Q 1834 4238 1429 3725 
Q 1025 3213 1025 2328 
Q 1025 1447 1429 934 
Q 1834 422 2522 422 
Q 3209 422 3611 934 
Q 4013 1447 4013 2328 
Q 4013 3213 3611 3725 
Q 3209 4238 2522 4238 
z
M 2522 4750 
Q 3503 4750 4090 4092 
Q 4678 3434 4678 2328 
Q 4678 1225 4090 567 
Q 3503 -91 2522 -91 
Q 1538 -91 948 565 
Q 359 1222 359 2328 
Q 359 3434 948 4092 
Q 1538 4750 2522 4750 
z
" transform="scale(0.015625)"/>
       <path id="DejaVuSans-53" d="M 3425 4513 
L 3425 3897 
Q 3066 4069 2747 4153 
Q 2428 4238 2131 4238 
Q 1616 4238 1336 4038 
Q 1056 3838 1056 3469 
Q 1056 3159 1242 3001 
Q 1428 2844 1947 2747 
L 2328 2669 
Q 3034 2534 3370 2195 
Q 3706 1856 3706 1288 
Q 3706 609 3251 259 
Q 2797 -91 1919 -91 
Q 1588 -91 1214 -16 
Q 841 59 441 206 
L 441 856 
Q 825 641 1194 531 
Q 1563 422 1919 422 
Q 2459 422 2753 634 
Q 3047 847 3047 1241 
Q 3047 1584 2836 1778 
Q 2625 1972 2144 2069 
L 1759 2144 
Q 1053 2284 737 2584 
Q 422 2884 422 3419 
Q 422 4038 858 4394 
Q 1294 4750 2059 4750 
Q 2388 4750 2728 4690 
Q 3069 4631 3425 4513 
z
" transform="scale(0.015625)"/>
      </defs>
      <use xlink:href="#DejaVuSans-4f"/>
      <use xlink:href="#DejaVuSans-70" transform="translate(78.710938 0)"/>
      <use xlink:href="#DejaVuSans-65" transform="translate(142.1875 0)"/>
      <use xlink:href="#DejaVuSans-6e" transform="translate(203.710938 0)"/>
      <use xlink:href="#DejaVuSans-53" transform="translate(267.089844 0)"/>
      <use xlink:href="#DejaVuSans-69" transform="translate(330.566406 0)"/>
      <use xlink:href="#DejaVuSans-6d" transform="translate(358.349609 0)"/>
      <use xlink:href="#DejaVuSans-20" transform="translate(455.761719 0)"/>
      <use xlink:href="#DejaVuSans-73" transform="translate(487.548828 0)"/>
      <use xlink:href="#DejaVuSans-70" transform="translate(539.648438 0)"/>
      <use xlink:href="#DejaVuSans-6c" transform="translate(603.125 0)"/>
      <use xlink:href="#DejaVuSans-69" transform="translate(630.908203 0)"/>
      <use xlink:href="#DejaVuSans-6e" transform="translate(658.691406 0)"/>
      <use xlink:href="#DejaVuSans-65" transform="translate(722.070312 0)"/>
      <use xlink:href="#DejaVuSans-20" transform="translate(783.59375 0)"/>
      <use xlink:href="#DejaVuSans-64" transform="translate(815.380859 0)"/>
      <use xlink:href="#DejaVuSans-61" transform="translate(878.857422 0)"/>
      <use xlink:href="#DejaVuSans-74" transform="translate(940.136719 0)"/>
      <use xlink:href="#DejaVuSans-61" transform="translate(979.345703 0)"/>
      <use xlink:href="#DejaVuSans-20" transform="translate(1040.625 0)"/>
      <use xlink:href="#DejaVuSans-70" transform="translate(1072.412109 0)"/>
      <use xlink:href="#DejaVuSans-6f" transform="translate(1135.888672 0)"/>
      <use xlink:href="#DejaVuSans-69" transform="translate(1197.070312 0)"/>
      <use xlink:href="#DejaVuSans-6e" transform="translate(1224.853516 0)"/>
      <use xlink:href="#DejaVuSans-74" transform="translate(1288.232422 0)"/>
      <use xlink:href="#DejaVuSans-73" transform="translate(1327.441406 0)"/>
     </g>
    </g>
    <g id="line2d_16">
     <path d="M 99 96.896563 
L 109 96.896563 
L 119 96.896563 
" style="fill: none; stroke: #ff7f0e; stroke-width: 1.5; stroke-linecap: square"/>
    </g>
    <g id="text_17">
     <!-- Approximation of the spline -->
     <g transform="translate(127 100.396563) scale(0.1 -0.1)">
      <defs>
       <path id="DejaVuSans-68" d="M 3513 2113 
L 3513 0 
L 2938 0 
L 2938 2094 
Q 2938 2591 2744 2837 
Q 2550 3084 2163 3084 
Q 1697 3084 1428 2787 
Q 1159 2491 1159 1978 
L 1159 0 
L 581 0 
L 581 4863 
L 1159 4863 
L 1159 2956 
Q 1366 3272 1645 3428 
Q 1925 3584 2291 3584 
Q 2894 3584 3203 3211 
Q 3513 2838 3513 2113 
z
" transform="scale(0.015625)"/>
      </defs>
      <use xlink:href="#DejaVuSans-41"/>
      <use xlink:href="#DejaVuSans-70" transform="translate(68.408203 0)"/>
      <use xlink:href="#DejaVuSans-70" transform="translate(131.884766 0)"/>
      <use xlink:href="#DejaVuSans-72" transform="translate(195.361328 0)"/>
      <use xlink:href="#DejaVuSans-6f" transform="translate(234.224609 0)"/>
      <use xlink:href="#DejaVuSans-78" transform="translate(292.28125 0)"/>
      <use xlink:href="#DejaVuSans-69" transform="translate(351.460938 0)"/>
      <use xlink:href="#DejaVuSans-6d" transform="translate(379.244141 0)"/>
      <use xlink:href="#DejaVuSans-61" transform="translate(476.65625 0)"/>
      <use xlink:href="#DejaVuSans-74" transform="translate(537.935547 0)"/>
      <use xlink:href="#DejaVuSans-69" transform="translate(577.144531 0)"/>
      <use xlink:href="#DejaVuSans-6f" transform="translate(604.927734 0)"/>
      <use xlink:href="#DejaVuSans-6e" transform="translate(666.109375 0)"/>
      <use xlink:href="#DejaVuSans-20" transform="translate(729.488281 0)"/>
      <use xlink:href="#DejaVuSans-6f" transform="translate(761.275391 0)"/>
      <use xlink:href="#DejaVuSans-66" transform="translate(822.457031 0)"/>
      <use xlink:href="#DejaVuSans-20" transform="translate(857.662109 0)"/>
      <use xlink:href="#DejaVuSans-74" transform="translate(889.449219 0)"/>
      <use xlink:href="#DejaVuSans-68" transform="translate(928.658203 0)"/>
      <use xlink:href="#DejaVuSans-65" transform="translate(992.037109 0)"/>
      <use xlink:href="#DejaVuSans-20" transform="translate(1053.560547 0)"/>
      <use xlink:href="#DejaVuSans-73" transform="translate(1085.347656 0)"/>
      <use xlink:href="#DejaVuSans-70" transform="translate(1137.447266 0)"/>
      <use xlink:href="#DejaVuSans-6c" transform="translate(1200.923828 0)"/>
      <use xlink:href="#DejaVuSans-69" transform="translate(1228.707031 0)"/>
      <use xlink:href="#DejaVuSans-6e" transform="translate(1256.490234 0)"/>
      <use xlink:href="#DejaVuSans-65" transform="translate(1319.869141 0)"/>
     </g>
    </g>
   </g>
  </g>
 </g>
 <defs>
  <clipPath id="p290fff3263">
   <rect x="90" y="69.12" width="558" height="443.52"/>
  </clipPath>
 </defs>
</svg>
